<svg width="304" height="120" viewBox="0 0 304 120" fill="none" xmlns="http://www.w3.org/2000/svg">
<path fill-rule="evenodd" clip-rule="evenodd" d="M72 48L72 44C72 37.3726 77.3726 32 84 32L104 32L104 24L84 24C72.9543 24 64 32.9543 64 44L64 48L72 48Z" fill="#00796B"/>
<path fill-rule="evenodd" clip-rule="evenodd" d="M96 24L96 44C96 50.6274 90.6274 56 84 56L64 56L64 64L84 64C95.0457 64 104 55.0457 104 44L104 24L96 24Z" fill="#00796B"/>
<path fill-rule="evenodd" clip-rule="evenodd" d="M64 72L64 76C64 82.6274 58.6274 88 52 88L32 88L32 96L52 96C63.0457 96 72 87.0457 72 76L72 72L64 72Z" fill="#00796B"/>
<path fill-rule="evenodd" clip-rule="evenodd" d="M40 96L40 76C40 69.3726 45.3726 64 52 64L72 64L72 56L52 56C40.9543 56 32 64.9543 32 76L32 96L40 96Z" fill="#00796B"/>
<path fill-rule="evenodd" clip-rule="evenodd" d="M252 32C263.046 32 272 40.9543 272 51.9998L272 67.9999C272 79.0455 263.046 87.9998 252 87.9998H248V79.9998H252C258.628 79.9998 264 74.6273 264 67.9999L264 51.9998C264 45.3725 258.628 40 252 40L240 40L240 87.9995L232 87.9995L232 32.0001L252 32Z" fill="#00796B"/>
<path fill-rule="evenodd" clip-rule="evenodd" d="M135.996 48.001V68.0003C135.996 74.6294 141.37 80.0033 147.999 80.0033L167.999 80.0033L167.999 87.9996L147.999 87.9996C136.954 87.9996 128 79.0456 128 68.0003V48.001H135.996Z" fill="#00796B"/>
<path fill-rule="evenodd" clip-rule="evenodd" d="M135.996 32L135.996 55.9975L128 55.9975L128 32L135.996 32Z" fill="#00796B"/>
<path fill-rule="evenodd" clip-rule="evenodd" d="M144.001 32H147.999C159.045 32 167.999 40.954 167.999 51.9993L167.999 63.998L128 63.998L128 56.0017L160.002 56.0017L160.002 51.9993C160.002 45.3703 154.628 39.9963 147.999 39.9963H144.001V32Z" fill="#00796B"/>
<path fill-rule="evenodd" clip-rule="evenodd" d="M180 32L180 55.998L180 67.9994C180 79.0443 188.955 87.9977 200 87.9977H220V79.9977H200C193.372 79.9977 188 74.6253 188 67.9994L188 52.0013L188 51.998L188 32L180 32Z" fill="#00796B"/>
<path fill-rule="evenodd" clip-rule="evenodd" d="M220 87.9976L220 63.9996L220 51.9982C220 40.9533 211.045 31.9999 200 31.9999L180 31.9998L180 39.9998L200 39.9999C206.628 39.9999 212 45.3722 212 51.9982L212 67.9962L212 67.9995L212 87.9975L220 87.9976Z" fill="#00796B"/>
</svg>
