<svg width="2000" height="800" viewBox="0 0 2000 800" fill="none" xmlns="http://www.w3.org/2000/svg">
<rect width="2000" height="800" fill="#00796B"/>
<path fill-rule="evenodd" clip-rule="evenodd" d="M473.684 320.789L473.684 294.473C473.684 250.872 509.03 215.526 552.632 215.526L684.211 215.526L684.211 162.894L552.632 162.894C479.963 162.894 421.053 221.804 421.053 294.473L421.053 320.789L473.684 320.789Z" fill="white"/>
<path fill-rule="evenodd" clip-rule="evenodd" d="M631.579 162.895L631.579 294.473C631.579 338.075 596.233 373.421 552.631 373.421L421.053 373.421L421.053 426.052L552.631 426.052C625.301 426.052 684.211 367.143 684.211 294.473L684.211 162.895L631.579 162.895Z" fill="white"/>
<path fill-rule="evenodd" clip-rule="evenodd" d="M421.053 478.684L421.053 505C421.053 548.601 385.707 583.947 342.105 583.947L210.526 583.947L210.526 636.579L342.105 636.579C414.774 636.579 473.684 577.669 473.684 505L473.684 478.684L421.053 478.684Z" fill="white"/>
<path fill-rule="evenodd" clip-rule="evenodd" d="M263.158 636.579L263.158 505C263.158 461.398 298.504 426.052 342.105 426.052L473.684 426.052L473.684 373.421L342.105 373.421C269.436 373.421 210.526 432.331 210.526 505L210.526 636.579L263.158 636.579Z" fill="white"/>
<path fill-rule="evenodd" clip-rule="evenodd" d="M1657.9 215.527C1730.57 215.527 1789.47 274.437 1789.47 347.105L1789.47 452.369C1789.47 525.037 1730.57 583.947 1657.9 583.947H1631.58V531.315H1657.9C1701.5 531.315 1736.84 495.97 1736.84 452.369L1736.84 347.105C1736.84 303.504 1701.5 268.159 1657.9 268.159L1578.95 268.159L1578.95 583.945L1526.32 583.945L1526.32 215.528L1657.9 215.527Z" fill="white"/>
<path fill-rule="evenodd" clip-rule="evenodd" d="M894.713 320.797V452.371C894.713 495.984 930.067 531.338 973.68 531.338L1105.25 531.338L1105.25 583.946L973.68 583.946C901.013 583.946 842.105 525.038 842.105 452.371V320.797H894.713Z" fill="white"/>
<path fill-rule="evenodd" clip-rule="evenodd" d="M894.713 215.526L894.713 373.404L842.105 373.404L842.105 215.526L894.713 215.526Z" fill="white"/>
<path fill-rule="evenodd" clip-rule="evenodd" d="M947.376 215.526H973.68C1046.35 215.526 1105.25 274.434 1105.25 347.1L1105.25 426.039L842.105 426.039L842.105 373.432L1052.65 373.431L1052.65 347.1C1052.65 303.488 1017.29 268.133 973.68 268.133H947.376V215.526Z" fill="white"/>
<path fill-rule="evenodd" clip-rule="evenodd" d="M1184.21 215.527L1184.21 373.409L1184.21 452.365C1184.21 525.029 1243.12 583.933 1315.79 583.933H1447.37V531.301H1315.79C1272.19 531.301 1236.84 495.957 1236.84 452.365L1236.84 347.115L1236.84 347.093L1236.84 215.527L1184.21 215.527Z" fill="white"/>
<path fill-rule="evenodd" clip-rule="evenodd" d="M1447.37 583.932L1447.37 426.05L1447.37 347.094C1447.37 274.43 1388.46 215.526 1315.79 215.526L1184.21 215.526L1184.21 268.157L1315.79 268.157C1359.39 268.157 1394.74 303.502 1394.74 347.094L1394.74 452.344L1394.74 452.366L1394.74 583.932L1447.37 583.932Z" fill="white"/>
</svg>
